# xmcd
#
# Track frame offsets:
# 150
# 19649
# 40662
# 69074
# 84095
# 104643
# 121707
# 138297
# 155380
# 173829
# 192616
# 206024
# 223783
#
# Disc length: 3208 seconds
#
# Revision: 0
# Processed by: cddbd v1.5.2PL0 Copyright (c) Steve Scherf et al.
# Submitted via: Audion 3.0.2 (http://www.panic.com/audion/)
#
DISCID=a80c860d
DTITLE=Retro Deluxe - Baby It's Hot
DYEAR=1900
DGENRE=
TTITLE0=That Ol' Rooster
TTITLE1=I Got Sidetracked
TTITLE2=Baby It's Hot!
TTITLE3=King Size Boogie
TTITLE4=In The Past
TTITLE5=DC to Memphis
TTITLE6=3 Piece Blues
TTITLE7=Drinkin Doubleshots
TTITLE8=She Can't Wait Anymore
TTITLE9=The Dirty Song
TTITLE10=Jump, Scream and Shout
TTITLE11=It's Up To You
TTITLE12=You Got No Creek
EXTD=
EXTT0=
EXTT1=
EXTT2=
EXTT3=
EXTT4=
EXTT5=
EXTT6=
EXTT7=
EXTT8=
EXTT9=
EXTT10=
EXTT11=
EXTT12=
PLAYORDER=
